<?xml version="1.0" encoding="UTF-8" standalone="no"?>
<!-- Created with Inkscape (http://www.inkscape.org/) -->

<svg
   xmlns:dc="http://purl.org/dc/elements/1.1/"
   xmlns:cc="http://creativecommons.org/ns#"
   xmlns:rdf="http://www.w3.org/1999/02/22-rdf-syntax-ns#"
   xmlns:svg="http://www.w3.org/2000/svg"
   xmlns="http://www.w3.org/2000/svg"
   xmlns:sodipodi="http://sodipodi.sourceforge.net/DTD/sodipodi-0.dtd"
   xmlns:inkscape="http://www.inkscape.org/namespaces/inkscape"
   width="206.11208mm"
   height="67.950142mm"
   viewBox="0 0 206.11208 67.950142"
   version="1.1"
   id="svg1079"
   inkscape:version="0.92.4 (5da689c313, 2019-01-14)"
   sodipodi:docname="dexter_logo_colored.svg">
  <defs
     id="defs1073" />
  <sodipodi:namedview
     id="base"
     pagecolor="#ffffff"
     bordercolor="#666666"
     borderopacity="1.0"
     inkscape:pageopacity="0.0"
     inkscape:pageshadow="2"
     inkscape:zoom="0.7"
     inkscape:cx="322.49726"
     inkscape:cy="2.8311745"
     inkscape:document-units="mm"
     inkscape:current-layer="layer1"
     showgrid="false"
     fit-margin-top="0"
     fit-margin-left="0"
     fit-margin-right="0"
     fit-margin-bottom="0"
     inkscape:window-width="1920"
     inkscape:window-height="1001"
     inkscape:window-x="-9"
     inkscape:window-y="-9"
     inkscape:window-maximized="1" />
  <metadata
     id="metadata1076">
    <rdf:RDF>
      <cc:Work
         rdf:about="">
        <dc:format>image/svg+xml</dc:format>
        <dc:type
           rdf:resource="http://purl.org/dc/dcmitype/StillImage" />
        <dc:title></dc:title>
      </cc:Work>
    </rdf:RDF>
  </metadata>
  <g
     inkscape:label="Ebene 1"
     inkscape:groupmode="layer"
     id="layer1"
     transform="translate(-2.0213457,-61.941597)">
    <path
       inkscape:connector-curvature="0"
       d="m 17.578846,73.308097 q 4.445,0 7.5565,2.095502 3.175,2.0955 4.572,5.6515 V 61.941597 h 8.89 V 108.9316 h -8.89 v -7.366 q -1.397,3.556 -4.572,5.715 -3.1115,2.0955 -7.5565,2.0955 -4.445,0 -8.0010003,-2.159 -3.556,-2.159 -5.588,-6.223 -1.9685,-4.127501 -1.9685,-9.652001 0,-5.5245 1.9685,-9.5885 2.032,-4.1275 5.588,-6.2865 3.5560003,-2.159002 8.0010003,-2.159002 z m 2.794,7.810502 q -4.191,0 -6.731,2.7305 -2.54,2.7305 -2.54,7.493 0,4.7625 2.54,7.493 2.54,2.667001 6.731,2.667001 4.064,0 6.6675,-2.730501 2.667,-2.794 2.667,-7.4295 0,-4.699 -2.667,-7.4295 -2.6035,-2.794 -6.6675,-2.794 z"
       style="font-style:normal;font-variant:normal;font-weight:600;font-stretch:normal;font-size:63.5px;line-height:1.20000005;font-family:Poppins;-inkscape-font-specification:'Poppins Semi-Bold';letter-spacing:0px;word-spacing:0px;fill:#d12c2c;fill-opacity:1;stroke:none;stroke-width:0.26458332"
       id="path1028" />
    <path
       inkscape:connector-curvature="0"
       d="m 79.794956,90.008599 q 0,1.3335 -0.3175,3.048 h -25.781 q 0.1905,4.699 2.54,6.9215 2.3495,2.222501 5.842,2.222501 3.1115,0 5.1435,-1.524 2.0955,-1.524001 2.667,-4.127501 h 9.4615 q -0.6985,3.683001 -2.9845,6.604001 -2.286,2.921 -5.9055,4.572 -3.556,1.651 -7.9375,1.651 -5.1435,0 -9.144,-2.159 -4.0005,-2.2225 -6.223,-6.2865 -2.2225,-4.064001 -2.2225,-9.588501 0,-5.5245 2.2225,-9.5885 2.2225,-4.1275 6.223,-6.2865 4.0005,-2.159002 9.144,-2.159002 5.207,0 9.0805,2.159002 3.937,2.159 6.0325,5.969 2.159,3.7465 2.159,8.5725 z m -9.017,-0.889 q 0.1905,-4.318 -2.286,-6.5405 -2.413,-2.2225 -5.969,-2.2225 -3.6195,0 -6.096,2.2225 -2.4765,2.2225 -2.7305,6.5405 z"
       style="font-style:normal;font-variant:normal;font-weight:600;font-stretch:normal;font-size:63.5px;line-height:1.20000005;font-family:Poppins;-inkscape-font-specification:'Poppins Semi-Bold';letter-spacing:0px;word-spacing:0px;fill:#d12c2c;fill-opacity:1;stroke:none;stroke-width:0.26458332"
       id="path1030" />
    <path
       inkscape:connector-curvature="0"
       d="m 107.55041,108.9316 -8.001004,-11.303001 -6.731,11.303001 h -9.8425 l 11.6205,-18.351501 -11.8745,-16.827502 h 10.033 l 7.810504,11.112502 6.731,-11.112502 h 9.8425 l -11.811,17.843502 12.2555,17.335501 z"
       style="font-style:normal;font-variant:normal;font-weight:600;font-stretch:normal;font-size:63.5px;line-height:1.20000005;font-family:Poppins;-inkscape-font-specification:'Poppins Semi-Bold';letter-spacing:0px;word-spacing:0px;fill:#d12c2c;fill-opacity:1;stroke:none;stroke-width:0.26458332"
       id="path1032" />
    <path
       inkscape:connector-curvature="0"
       d="m 140.91371,101.2481 v 7.6835 h -4.699 q -5.9055,0 -9.0805,-2.8575 -3.1115,-2.8575 -3.1115,-9.525001 v -15.24 h -4.8895 v -7.556502 h 4.8895 v -8.6995 h 8.9535 v 8.6995 h 7.874 v 7.556502 h -7.874 v 15.367 q 0,2.54 1.016,3.556001 1.016,1.016 3.429,1.016 z"
       style="font-style:normal;font-variant:normal;font-weight:600;font-stretch:normal;font-size:63.5px;line-height:1.20000005;font-family:Poppins;-inkscape-font-specification:'Poppins Semi-Bold';letter-spacing:0px;word-spacing:0px;fill:#d12c2c;fill-opacity:1;stroke:none;stroke-width:0.26458332"
       id="path1034" />
    <path
       inkscape:connector-curvature="0"
       d="m 180.37797,90.008599 q 0,1.3335 -0.3175,3.048 h -25.781 q 0.1905,4.699 2.54,6.9215 2.3495,2.222501 5.842,2.222501 3.1115,0 5.1435,-1.524 2.0955,-1.524001 2.667,-4.127501 h 9.4615 q -0.6985,3.683001 -2.9845,6.604001 -2.286,2.921 -5.9055,4.572 -3.556,1.651 -7.9375,1.651 -5.1435,0 -9.144,-2.159 -4.0005,-2.2225 -6.223,-6.2865 -2.2225,-4.064001 -2.2225,-9.588501 0,-5.5245 2.2225,-9.5885 2.2225,-4.1275 6.223,-6.2865 4.0005,-2.159002 9.144,-2.159002 5.207,0 9.0805,2.159002 3.937,2.159 6.0325,5.969 2.159,3.7465 2.159,8.5725 z m -9.017,-0.889 q 0.1905,-4.318 -2.286,-6.5405 -2.413,-2.2225 -5.969,-2.2225 -3.6195,0 -6.096,2.2225 -2.4765,2.2225 -2.7305,6.5405 z"
       style="font-style:normal;font-variant:normal;font-weight:600;font-stretch:normal;font-size:63.5px;line-height:1.20000005;font-family:Poppins;-inkscape-font-specification:'Poppins Semi-Bold';letter-spacing:0px;word-spacing:0px;fill:#d12c2c;fill-opacity:1;stroke:none;stroke-width:0.26458332"
       id="path1036" />
    <path
       inkscape:connector-curvature="0"
       d="m 195.68742,80.483599 q 1.9685,-3.3655 5.207,-5.2705 3.2385,-1.968502 7.239,-1.968502 v 9.588502 h -2.6035 q -9.8425,0 -9.8425,9.144 V 108.9316 h -8.9535 V 73.752597 h 8.9535 z"
       style="font-style:normal;font-variant:normal;font-weight:600;font-stretch:normal;font-size:63.5px;line-height:1.20000005;font-family:Poppins;-inkscape-font-specification:'Poppins Semi-Bold';letter-spacing:0px;word-spacing:0px;fill:#d12c2c;fill-opacity:1;stroke:none;stroke-width:0.26458332"
       id="path1038" />
    <g
       transform="translate(51.051096,-409.3676)"
       aria-label="voice of healthcare"
       style="font-style:normal;font-variant:normal;font-weight:normal;font-stretch:normal;font-size:16.93333244px;line-height:1.20000005;font-family:Poppins;-inkscape-font-specification:Poppins;letter-spacing:0px;word-spacing:0px;fill:#000000;fill-opacity:1;stroke:none;stroke-width:0.26458332"
       id="text991">
      <path
         inkscape:connector-curvature="0"
         d="m -22.953095,537.49827 2.878666,-7.65386 h 1.659467 l -3.640666,9.2964 h -1.8288 l -3.640667,-9.2964 h 1.659467 z"
         style="stroke-width:0.26458332;fill:#000000;fill-opacity:1"
         id="path993" />
      <path
         inkscape:connector-curvature="0"
         d="m -12.686204,529.72588 q 1.337734,0 2.3876,0.57573 1.0668001,0.57573 1.6594668,1.65947 0.6095999,1.08373 0.6095999,2.54 0,1.45626 -0.6095999,2.53999 -0.5926667,1.0668 -1.6594668,1.64254 -1.049866,0.57573 -2.3876,0.57573 -1.337733,0 -2.404533,-0.57573 -1.049866,-0.57574 -1.659466,-1.64254 -0.6096,-1.08373 -0.6096,-2.53999 0,-1.45627 0.6096,-2.54 0.6096,-1.08374 1.659466,-1.65947 1.0668,-0.57573 2.404533,-0.57573 z m 0,1.35466 q -0.829733,0 -1.540933,0.37254 -0.694267,0.37253 -1.134533,1.15146 -0.423334,0.762 -0.423334,1.89654 0,1.11759 0.423334,1.89653 0.440266,0.762 1.134533,1.13453 0.7112,0.37253 1.540933,0.37253 0.829734,0 1.524,-0.37253 0.7112,-0.37253 1.134534,-1.13453 0.4402662,-0.77894 0.4402662,-1.89653 0,-1.13454 -0.4402662,-1.89654 -0.423334,-0.77893 -1.134534,-1.15146 -0.694266,-0.37254 -1.524,-0.37254 z"
         style="stroke-width:0.26458332;fill:#000000;fill-opacity:1"
         id="path995" />
      <path
         inkscape:connector-curvature="0"
         d="m -6.2925477,527.11814 q 0,-0.42333 0.2878667,-0.67733 0.2878666,-0.27093 0.7619999,-0.27093 0.4741333,0 0.762,0.27093 0.2878666,0.254 0.2878666,0.67733 0,0.42334 -0.2878666,0.69427 -0.2878667,0.254 -0.762,0.254 -0.4741333,0 -0.7619999,-0.254 -0.2878667,-0.27093 -0.2878667,-0.69427 z m 1.8118666,2.72627 v 9.2964 h -1.5409333 v -9.2964 z"
         style="stroke-width:0.26458332;fill:#000000;fill-opacity:1"
         id="path997" />
      <path
         inkscape:connector-curvature="0"
         d="m 2.0950088,529.72588 q 1.7779999,0 2.9463999,0.94826 1.1683999,0.94827 1.4393332,2.54 H 4.855142 q -0.1693333,-0.99906 -0.9313333,-1.55786 -0.7450666,-0.57574 -1.8626665,-0.57574 -0.8128,0 -1.49013329,0.37254 -0.66039997,0.37253 -1.06679995,1.15146 -0.40639998,0.762 -0.40639998,1.89654 0,1.13453 0.40639998,1.91346 0.40639998,0.762 1.06679995,1.13453 0.67733329,0.37254 1.49013329,0.37254 1.1175999,0 1.8626665,-0.57574 0.762,-0.57573 0.9313333,-1.5748 h 1.6255999 q -0.2709333,1.60867 -1.4393332,2.55694 -1.1684,0.93133 -2.9463999,0.93133 -1.33773324,0 -2.37066651,-0.57573 -1.03293329,-0.57574 -1.62559989,-1.64254 -0.5757333,-1.08373 -0.5757333,-2.53999 0,-1.45627 0.5757333,-2.54 0.5926666,-1.08374 1.62559989,-1.65947 1.03293327,-0.57573 2.37066651,-0.57573 z"
         style="stroke-width:0.26458332;fill:#000000;fill-opacity:1"
         id="path999" />
      <path
         inkscape:connector-curvature="0"
         d="m 17.048727,533.97614 q 0,0.49107 -0.06773,0.84667 H 9.5472609 q 0.0508,1.59173 0.8974661,2.3876 0.8636,0.79586 2.099734,0.79586 1.1176,0 1.862666,-0.5588 0.762,-0.57573 0.931334,-1.524 h 1.642533 q -0.169334,0.9652 -0.762,1.7272 -0.575733,0.762 -1.507067,1.18534 -0.931333,0.42333 -2.099733,0.42333 -1.337733,0 -2.370667,-0.57573 -1.0329328,-0.57574 -1.6255994,-1.64254 -0.5757333,-1.08373 -0.5757333,-2.53999 0,-1.45627 0.5757333,-2.54 0.5926666,-1.08374 1.6255994,-1.65947 1.032934,-0.57573 2.370667,-0.57573 1.354667,0 2.353733,0.57573 1.016,0.57573 1.540934,1.54093 0.541866,0.9652 0.541866,2.1336 z m -1.557866,0.1016 q 0.0508,-1.03293 -0.338667,-1.7272 -0.389467,-0.69426 -1.0668,-1.03293 -0.677333,-0.33867 -1.4732,-0.33867 -1.27,0 -2.1336,0.79587 -0.8635998,0.77893 -0.9313331,2.30293 z"
         style="stroke-width:0.26458332;fill:#000000;fill-opacity:1"
         id="path1001" />
      <path
         inkscape:connector-curvature="0"
         d="m 27.431243,529.72588 q 1.337733,0 2.3876,0.57573 1.0668,0.57573 1.659467,1.65947 0.6096,1.08373 0.6096,2.54 0,1.45626 -0.6096,2.53999 -0.592667,1.0668 -1.659467,1.64254 -1.049867,0.57573 -2.3876,0.57573 -1.337733,0 -2.404533,-0.57573 -1.049867,-0.57574 -1.659467,-1.64254 -0.6096,-1.08373 -0.6096,-2.53999 0,-1.45627 0.6096,-2.54 0.6096,-1.08374 1.659467,-1.65947 1.0668,-0.57573 2.404533,-0.57573 z m 0,1.35466 q -0.829733,0 -1.540933,0.37254 -0.694267,0.37253 -1.134533,1.15146 -0.423334,0.762 -0.423334,1.89654 0,1.11759 0.423334,1.89653 0.440266,0.762 1.134533,1.13453 0.7112,0.37253 1.540933,0.37253 0.829734,0 1.524,-0.37253 0.7112,-0.37253 1.134533,-1.13453 0.440267,-0.77894 0.440267,-1.89653 0,-1.13454 -0.440267,-1.89654 -0.423333,-0.77893 -1.134533,-1.15146 -0.694266,-0.37254 -1.524,-0.37254 z"
         style="stroke-width:0.26458332;fill:#000000;fill-opacity:1"
         id="path1003" />
      <path
         inkscape:connector-curvature="0"
         d="m 38.210632,527.64308 q -1.236133,-0.0169 -1.7272,0.42333 -0.474133,0.44027 -0.474133,1.524 v 0.254 h 2.201333 v 1.35467 h -2.201333 v 7.94173 h -1.540933 v -7.94173 h -1.337733 v -1.35467 h 1.337733 v -0.37253 q 0,-3.33587 3.742266,-3.18347 z"
         style="stroke-width:0.26458332;fill:#000000;fill-opacity:1"
         id="path1005" />
      <path
         inkscape:connector-curvature="0"
         d="m 48.94451,529.69201 q 1.6256,0 2.624667,1.04987 0.999066,1.03293 0.999066,2.9972 v 5.40173 H 51.02731 v -5.26627 q 0,-1.38853 -0.7112,-2.1336 -0.7112,-0.74506 -1.9304,-0.74506 -1.27,0 -2.032,0.82973 -0.762,0.8128 -0.762,2.3876 v 4.9276 h -1.540933 v -12.53067 h 1.540933 v 5.4356 q 0.3556,-1.13453 1.253067,-1.74413 0.9144,-0.6096 2.099733,-0.6096 z"
         style="stroke-width:0.26458332;fill:#000000;fill-opacity:1"
         id="path1007" />
      <path
         inkscape:connector-curvature="0"
         d="m 63.483099,533.97614 q 0,0.49107 -0.06773,0.84667 h -7.433733 q 0.0508,1.59173 0.897466,2.3876 0.8636,0.79586 2.099734,0.79586 1.1176,0 1.862666,-0.5588 0.762,-0.57573 0.931334,-1.524 h 1.642533 q -0.169334,0.9652 -0.762,1.7272 -0.575734,0.762 -1.507067,1.18534 -0.931333,0.42333 -2.099733,0.42333 -1.337733,0 -2.370667,-0.57573 -1.032933,-0.57574 -1.625599,-1.64254 -0.575734,-1.08373 -0.575734,-2.53999 0,-1.45627 0.575734,-2.54 0.592666,-1.08374 1.625599,-1.65947 1.032934,-0.57573 2.370667,-0.57573 1.354667,0 2.353733,0.57573 1.016,0.57573 1.540933,1.54093 0.541867,0.9652 0.541867,2.1336 z m -1.557866,0.1016 q 0.0508,-1.03293 -0.338667,-1.7272 -0.389467,-0.69426 -1.0668,-1.03293 -0.677333,-0.33867 -1.4732,-0.33867 -1.27,0 -2.1336,0.79587 -0.8636,0.77893 -0.931333,2.30293 z"
         style="stroke-width:0.26458332;fill:#000000;fill-opacity:1"
         id="path1009" />
      <path
         inkscape:connector-curvature="0"
         d="m 69.292028,529.72588 q 1.354667,0 2.286,0.67733 0.948267,0.67733 1.3208,1.81187 v -2.37067 h 1.540934 v 9.2964 h -1.540934 v -2.37067 q -0.372533,1.13453 -1.3208,1.81187 -0.931333,0.67733 -2.286,0.67733 -1.236133,0 -2.201333,-0.57573 -0.9652,-0.57574 -1.524,-1.64254 -0.541866,-1.08373 -0.541866,-2.53999 0,-1.45627 0.541866,-2.54 0.5588,-1.08374 1.524,-1.65947 0.9652,-0.57573 2.201333,-0.57573 z m 0.440267,1.3716 q -1.4224,0 -2.286,0.9144 -0.846666,0.89746 -0.846666,2.4892 0,1.59173 0.846666,2.50613 0.8636,0.89746 2.286,0.89746 0.9144,0 1.6256,-0.42333 0.728133,-0.42333 1.134533,-1.18533 0.4064,-0.77894 0.4064,-1.79493 0,-1.016 -0.4064,-1.79494 -0.4064,-0.77893 -1.134533,-1.18533 -0.7112,-0.42333 -1.6256,-0.42333 z"
         style="stroke-width:0.26458332;fill:#000000;fill-opacity:1"
         id="path1011" />
      <path
         inkscape:connector-curvature="0"
         d="m 78.433118,526.61014 v 12.53067 h -1.540933 v -12.53067 z"
         style="stroke-width:0.26458332;fill:#000000;fill-opacity:1"
         id="path1013" />
      <path
         inkscape:connector-curvature="0"
         d="m 85.330541,537.78614 v 1.35467 h -1.151466 q -1.4224,0 -2.1336,-0.67734 -0.694267,-0.67733 -0.694267,-2.26906 v -5.01227 h -1.388533 v -1.33773 h 1.388533 v -2.31987 h 1.557867 v 2.31987 h 2.404533 v 1.33773 h -2.404533 v 5.04613 q 0,0.89747 0.321733,1.23614 0.338667,0.32173 1.151467,0.32173 z"
         style="stroke-width:0.26458332;fill:#000000;fill-opacity:1"
         id="path1015" />
      <path
         inkscape:connector-curvature="0"
         d="m 92.104666,529.69201 q 1.6256,0 2.624667,1.04987 0.999067,1.03293 0.999067,2.9972 v 5.40173 h -1.540934 v -5.26627 q 0,-1.38853 -0.7112,-2.1336 -0.7112,-0.74506 -1.9304,-0.74506 -1.269999,0 -2.031999,0.82973 -0.762,0.8128 -0.762,2.3876 v 4.9276 h -1.540934 v -12.53067 h 1.540934 v 5.4356 q 0.3556,-1.13453 1.253066,-1.74413 0.9144,-0.6096 2.099733,-0.6096 z"
         style="stroke-width:0.26458332;fill:#000000;fill-opacity:1"
         id="path1017" />
      <path
         inkscape:connector-curvature="0"
         d="m 102.20672,529.72588 q 1.778,0 2.9464,0.94826 1.1684,0.94827 1.43934,2.54 h -1.6256 q -0.16934,-0.99906 -0.93134,-1.55786 -0.74506,-0.57574 -1.86266,-0.57574 -0.8128,0 -1.49014,0.37254 -0.6604,0.37253 -1.066798,1.15146 -0.4064,0.762 -0.4064,1.89654 0,1.13453 0.4064,1.91346 0.406398,0.762 1.066798,1.13453 0.67734,0.37254 1.49014,0.37254 1.1176,0 1.86266,-0.57574 0.762,-0.57573 0.93134,-1.5748 h 1.6256 q -0.27094,1.60867 -1.43934,2.55694 -1.1684,0.93133 -2.9464,0.93133 -1.33773,0 -2.370664,-0.57573 -1.032934,-0.57574 -1.6256,-1.64254 -0.575734,-1.08373 -0.575734,-2.53999 0,-1.45627 0.575734,-2.54 0.592666,-1.08374 1.6256,-1.65947 1.032934,-0.57573 2.370664,-0.57573 z"
         style="stroke-width:0.26458332;fill:#000000;fill-opacity:1"
         id="path1019" />
      <path
         inkscape:connector-curvature="0"
         d="m 112.41911,529.72588 q 1.35467,0 2.286,0.67733 0.94827,0.67733 1.3208,1.81187 v -2.37067 h 1.54093 v 9.2964 h -1.54093 v -2.37067 q -0.37253,1.13453 -1.3208,1.81187 -0.93133,0.67733 -2.286,0.67733 -1.23613,0 -2.20133,-0.57573 -0.9652,-0.57574 -1.524,-1.64254 -0.54187,-1.08373 -0.54187,-2.53999 0,-1.45627 0.54187,-2.54 0.5588,-1.08374 1.524,-1.65947 0.9652,-0.57573 2.20133,-0.57573 z m 0.44027,1.3716 q -1.4224,0 -2.286,0.9144 -0.84667,0.89746 -0.84667,2.4892 0,1.59173 0.84667,2.50613 0.8636,0.89746 2.286,0.89746 0.9144,0 1.6256,-0.42333 0.72813,-0.42333 1.13453,-1.18533 0.4064,-0.77894 0.4064,-1.79493 0,-1.016 -0.4064,-1.79494 -0.4064,-0.77893 -1.13453,-1.18533 -0.7112,-0.42333 -1.6256,-0.42333 z"
         style="stroke-width:0.26458332;fill:#000000;fill-opacity:1"
         id="path1021" />
      <path
         inkscape:connector-curvature="0"
         d="m 121.5602,531.72401 q 0.4572,-0.9652 1.33773,-1.49013 0.88054,-0.54187 2.09974,-0.54187 v 1.6764 h -0.47414 q -1.30386,0 -2.1336,0.67733 -0.82973,0.6604 -0.82973,2.20134 v 4.89373 h -1.54093 v -9.2964 h 1.54093 z"
         style="stroke-width:0.26458332;fill:#000000;fill-opacity:1"
         id="path1023" />
      <path
         inkscape:connector-curvature="0"
         d="m 135.08597,533.97614 q 0,0.49107 -0.0677,0.84667 h -7.43373 q 0.0508,1.59173 0.89747,2.3876 0.8636,0.79586 2.09973,0.79586 1.1176,0 1.86267,-0.5588 0.762,-0.57573 0.93133,-1.524 h 1.64253 q -0.16933,0.9652 -0.762,1.7272 -0.57573,0.762 -1.50706,1.18534 -0.93134,0.42333 -2.09974,0.42333 -1.33773,0 -2.37066,-0.57573 -1.03294,-0.57574 -1.6256,-1.64254 -0.57574,-1.08373 -0.57574,-2.53999 0,-1.45627 0.57574,-2.54 0.59266,-1.08374 1.6256,-1.65947 1.03293,-0.57573 2.37066,-0.57573 1.35467,0 2.35374,0.57573 1.016,0.57573 1.54093,1.54093 0.54187,0.9652 0.54187,2.1336 z m -1.55787,0.1016 q 0.0508,-1.03293 -0.33867,-1.7272 -0.38946,-0.69426 -1.0668,-1.03293 -0.67733,-0.33867 -1.4732,-0.33867 -1.27,0 -2.1336,0.79587 -0.8636,0.77893 -0.93133,2.30293 z"
         style="stroke-width:0.26458332;fill:#000000;fill-opacity:1"
         id="path1025" />
    </g>
  </g>
</svg>
